<?xml version="1.0" encoding="UTF-8" standalone="no"?>
<!-- Created with Inkscape (http://www.inkscape.org/) -->

<svg
   xmlns:dc="http://purl.org/dc/elements/1.1/"
   xmlns:cc="http://creativecommons.org/ns#"
   xmlns:rdf="http://www.w3.org/1999/02/22-rdf-syntax-ns#"
   xmlns:svg="http://www.w3.org/2000/svg"
   xmlns="http://www.w3.org/2000/svg"
   xmlns:sodipodi="http://sodipodi.sourceforge.net/DTD/sodipodi-0.dtd"
   xmlns:inkscape="http://www.inkscape.org/namespaces/inkscape"
   width="33.325096mm"
   height="33.325096mm"
   viewBox="0 0 33.325096 33.325096"
   version="1.1"
   id="svg8"
   inkscape:version="0.92.5 (2060ec1f9f, 2020-04-08)"
   sodipodi:docname="SimpleEnemy.svg">
  <defs
     id="defs2" />
  <sodipodi:namedview
     id="base"
     pagecolor="#ffffff"
     bordercolor="#666666"
     borderopacity="1.0"
     inkscape:pageopacity="0.0"
     inkscape:pageshadow="2"
     inkscape:zoom="1.6034923"
     inkscape:cx="72.935885"
     inkscape:cy="73.779866"
     inkscape:document-units="mm"
     inkscape:current-layer="layer1"
     showgrid="false"
     fit-margin-top="2"
     fit-margin-left="2"
     fit-margin-right="2"
     fit-margin-bottom="2"
     inkscape:window-width="1920"
     inkscape:window-height="1009"
     inkscape:window-x="0"
     inkscape:window-y="34"
     inkscape:window-maximized="1" />
  <metadata
     id="metadata5">
    <rdf:RDF>
      <cc:Work
         rdf:about="">
        <dc:format>image/svg+xml</dc:format>
        <dc:type
           rdf:resource="http://purl.org/dc/dcmitype/StillImage" />
        <dc:title></dc:title>
      </cc:Work>
    </rdf:RDF>
  </metadata>
  <g
     inkscape:label="Capa 1"
     inkscape:groupmode="layer"
     id="layer1"
     transform="translate(-44.008837,-116.29134)">
    <g
       id="g865">
      <rect
         ry="9.3340597"
         y="118.9528"
         x="46.670296"
         height="28.002178"
         width="28.002178"
         id="rect815"
         style="opacity:1;fill:#c2c2d1;fill-opacity:1;stroke:#000000;stroke-width:1.32291663;stroke-linecap:round;stroke-linejoin:miter;stroke-miterlimit:4;stroke-dasharray:none;stroke-dashoffset:0;stroke-opacity:1" />
      <path
         inkscape:connector-curvature="0"
         id="rect817"
         d="m 68.350186,122.20285 c 0.371673,0.91796 0.577689,1.922 0.577689,2.97635 v 7.89916 c 0,4.37603 -3.522711,7.89873 -7.89873,7.89873 H 53.12998 c -1.054342,0 -2.058389,-0.20601 -2.976346,-0.57769 1.171067,2.89174 3.999545,4.92239 7.321039,4.92239 h 7.898731 c 4.376019,0 7.899165,-3.52315 7.899165,-7.89916 v -7.89918 c 0,-3.32149 -2.030642,-6.14953 -4.922383,-7.3206 z"
         style="opacity:1;fill:#7e7e8f;fill-opacity:1;stroke:none;stroke-width:1.11951876;stroke-linecap:round;stroke-linejoin:miter;stroke-miterlimit:4;stroke-dasharray:none;stroke-dashoffset:0;stroke-opacity:1" />
      <g
         transform="translate(22.051961,18.927181)"
         id="g848">
        <path
           style="opacity:1;fill:#3ca370;fill-opacity:1;stroke:none;stroke-width:1.32291663;stroke-linecap:round;stroke-linejoin:miter;stroke-miterlimit:4;stroke-dasharray:none;stroke-dashoffset:0;stroke-opacity:1"
           id="path833"
           sodipodi:type="arc"
           sodipodi:cx="32.494198"
           sodipodi:cy="113.17735"
           sodipodi:rx="5.0753951"
           sodipodi:ry="5.0753951"
           sodipodi:start="2.9282436"
           sodipodi:end="2.9226236"
           sodipodi:open="true"
           d="m 27.533876,114.25199 a 5.0753951,5.0753951 0 0 1 3.878719,-6.03344 5.0753951,5.0753951 0 0 1 6.038886,3.87023 5.0753951,5.0753951 0 0 1 -3.86175,6.04432 5.0753951,5.0753951 0 0 1 -6.049738,-3.85325" />
        <path
           style="opacity:1;fill:#8fde5d;fill-opacity:1;stroke:none;stroke-width:1.22195971;stroke-linecap:round;stroke-linejoin:miter;stroke-miterlimit:4;stroke-dasharray:none;stroke-dashoffset:0;stroke-opacity:1"
           d="m 29.766347,109.28383 a 4.6880717,4.6880717 0 0 0 -1.825782,4.77757 l 0.0057,0.0258 a 4.6880717,4.6880717 0 0 0 5.588078,3.55943 4.6880717,4.6880717 0 0 0 2.861106,-1.94081 4.6880717,4.6880717 0 0 1 -1.742725,0.79093 4.6880717,4.6880717 0 0 1 -5.58808,-3.55944 l -0.0057,-0.0258 a 4.6880717,4.6880717 0 0 1 0.707403,-3.62769 z"
           id="path835"
           inkscape:connector-curvature="0" />
        <path
           style="opacity:1;fill:#cfff70;fill-opacity:1;stroke:none;stroke-width:1.32291663;stroke-linecap:round;stroke-linejoin:miter;stroke-miterlimit:4;stroke-dasharray:none;stroke-dashoffset:0;stroke-opacity:1"
           id="path840"
           sodipodi:type="arc"
           sodipodi:cx="34.390175"
           sodipodi:cy="111.19386"
           sodipodi:rx="1.3126022"
           sodipodi:ry="1.3126022"
           sodipodi:start="2.9282436"
           sodipodi:end="2.9226236"
           sodipodi:open="true"
           d="m 33.107333,111.47179 a 1.3126022,1.3126022 0 0 1 1.003117,-1.56038 1.3126022,1.3126022 0 0 1 1.561781,1.00093 1.3126022,1.3126022 0 0 1 -0.998729,1.56318 1.3126022,1.3126022 0 0 1 -1.564587,-0.99653" />
        <path
           style="opacity:1;fill:#ffffeb;fill-opacity:1;stroke:none;stroke-width:1.32291663;stroke-linecap:round;stroke-linejoin:miter;stroke-miterlimit:4;stroke-dasharray:none;stroke-dashoffset:0;stroke-opacity:1"
           id="path842"
           sodipodi:type="arc"
           sodipodi:cx="34.85688"
           sodipodi:cy="110.7855"
           sodipodi:rx="0.40836513"
           sodipodi:ry="0.40836513"
           sodipodi:start="2.9282436"
           sodipodi:end="2.9226236"
           sodipodi:open="true"
           d="m 34.457774,110.87196 a 0.40836513,0.40836513 0 0 1 0.312081,-0.48544 0.40836513,0.40836513 0 0 1 0.485887,0.31139 0.40836513,0.40836513 0 0 1 -0.310715,0.48633 0.40836513,0.40836513 0 0 1 -0.486761,-0.31003" />
      </g>
    </g>
  </g>
</svg>
