<?xml version="1.0" encoding="UTF-8" standalone="no"?>
<!-- Created with Inkscape (http://www.inkscape.org/) -->

<svg
   xmlns:dc="http://purl.org/dc/elements/1.1/"
   xmlns:cc="http://creativecommons.org/ns#"
   xmlns:rdf="http://www.w3.org/1999/02/22-rdf-syntax-ns#"
   xmlns:svg="http://www.w3.org/2000/svg"
   xmlns="http://www.w3.org/2000/svg"
   xmlns:sodipodi="http://sodipodi.sourceforge.net/DTD/sodipodi-0.dtd"
   xmlns:inkscape="http://www.inkscape.org/namespaces/inkscape"
   width="35.730019mm"
   height="61.838715mm"
   viewBox="0 0 35.730019 61.838715"
   version="1.1"
   id="svg8"
   inkscape:version="0.92.5 (2060ec1f9f, 2020-04-08)"
   sodipodi:docname="BulletIcon.svg">
  <defs
     id="defs2" />
  <sodipodi:namedview
     id="base"
     pagecolor="#ffffff"
     bordercolor="#666666"
     borderopacity="1.0"
     inkscape:pageopacity="0.0"
     inkscape:pageshadow="2"
     inkscape:zoom="1.1338403"
     inkscape:cx="16.205029"
     inkscape:cy="64.869446"
     inkscape:document-units="mm"
     inkscape:current-layer="layer1"
     showgrid="true"
     fit-margin-top="2"
     fit-margin-left="2"
     fit-margin-right="2"
     fit-margin-bottom="2"
     inkscape:window-width="1920"
     inkscape:window-height="1009"
     inkscape:window-x="0"
     inkscape:window-y="34"
     inkscape:window-maximized="1">
    <inkscape:grid
       type="xygrid"
       id="grid823"
       originx="-16.393777"
       originy="-153.15091" />
  </sodipodi:namedview>
  <metadata
     id="metadata5">
    <rdf:RDF>
      <cc:Work
         rdf:about="">
        <dc:format>image/svg+xml</dc:format>
        <dc:type
           rdf:resource="http://purl.org/dc/dcmitype/StillImage" />
        <dc:title></dc:title>
      </cc:Work>
    </rdf:RDF>
  </metadata>
  <g
     inkscape:label="Capa 1"
     inkscape:groupmode="layer"
     id="layer1"
     transform="translate(-16.393776,-82.010374)">
    <path
       style="opacity:1;fill:#ffb570;fill-opacity:1;stroke:none;stroke-width:5;stroke-linecap:round;stroke-linejoin:miter;stroke-miterlimit:4;stroke-dasharray:none;stroke-dashoffset:0;stroke-opacity:1"
       d="m 130,307.51953 c -86.666667,543.33345 -43.333333,271.66672 0,0 z m 0,0 c 0,0 -57.471482,19.17092 -59.910156,95 H 70 v 5 115 h 0.03516 c -0.01117,1.42317 0.433405,2.84267 1.326172,4.23438 l 0.07227,0.10937 c 7.188942,10.77171 39.192668,17.56716 71.517578,15.18555 27.46775,-2.03077 47.01317,-10.15088 47.00781,-19.5293 H 190 v -115 -5 h -0.0898 c -2.43868,-75.82908 -59.91016,-95 -59.91016,-95 z"
       transform="scale(0.26458333)"
       id="rect829"
       inkscape:connector-curvature="0"
       sodipodi:nodetypes="ccccccccccccccccc" />
    <g
       id="g876">
      <path
         inkscape:connector-curvature="0"
         id="path852"
         d="m 33.843497,84.010374 c 0,0 -0.999407,0.336905 -2.472298,1.172455 4.081734,2.31551 11.831984,8.494872 12.273041,22.209341 h 0.02211 v 1.23062 28.30429 h -0.0101 c 0.0013,2.30825 -4.809282,4.30682 -11.569761,4.80663 -0.233397,0.0172 -0.466807,0.0323 -0.699916,0.0457 1.821598,0.10275 3.729715,0.0954 5.644512,-0.0457 6.760479,-0.49982 11.57108,-2.49837 11.569761,-4.80663 h 0.0101 v -28.30429 -1.23062 h -0.02211 C 47.98862,88.728802 33.843497,84.010374 33.843497,84.010374 Z"
         style="opacity:1;fill:#ffe478;fill-opacity:1;stroke:none;stroke-width:1.2306211;stroke-linecap:round;stroke-linejoin:miter;stroke-miterlimit:4;stroke-dasharray:none;stroke-dashoffset:0;stroke-opacity:1" />
      <path
         inkscape:connector-curvature="0"
         id="path845"
         d="m 49.993844,131.61007 a 15.875,5.2916663 0 0 1 -12.310359,4.5191 15.875,5.2916663 0 0 1 -18.922359,-4.01733 l -0.01912,-0.0289 a 15.875,5.2916663 0 0 1 -0.221173,-0.44752 15.875,5.2916663 0 0 0 0.221173,1.77043 l 0.01912,0.0289 a 15.875,5.2916663 0 0 0 18.922359,4.01733 15.875,5.2916663 0 0 0 12.310359,-5.84202 z"
         style="opacity:1;fill:#eb564b;fill-opacity:1;stroke:none;stroke-width:1.32291663;stroke-linecap:round;stroke-linejoin:miter;stroke-miterlimit:4;stroke-dasharray:none;stroke-dashoffset:0;stroke-opacity:1" />
      <path
         style="opacity:1;fill:#eb564b;fill-opacity:1;stroke:none;stroke-width:1.32291663;stroke-linecap:round;stroke-linejoin:miter;stroke-miterlimit:4;stroke-dasharray:none;stroke-dashoffset:0;stroke-opacity:1"
         d="m 49.993844,109.12048 a 15.875,5.2916663 0 0 1 -12.310359,4.5191 15.875,5.2916663 0 0 1 -18.922359,-4.01733 l -0.01912,-0.0289 a 15.875,5.2916663 0 0 1 -0.221173,-0.44752 15.875,5.2916663 0 0 0 0.221173,1.77043 l 0.01912,0.0289 a 15.875,5.2916663 0 0 0 18.922359,4.01733 15.875,5.2916663 0 0 0 12.310359,-5.84202 z"
         id="path850"
         inkscape:connector-curvature="0" />
      <path
         inkscape:connector-curvature="0"
         id="path867"
         d="m 49.993844,107.79757 a 15.875,5.2916663 0 0 1 -12.310359,4.5191 15.875,5.2916663 0 0 1 -18.922359,-4.01733 l -0.01912,-0.0289 a 15.875,5.2916663 0 0 1 -0.221173,-0.44752 15.875,5.2916663 0 0 0 0.221173,1.77043 l 0.01912,0.0289 a 15.875,5.2916663 0 0 0 18.922359,4.01733 15.875,5.2916663 0 0 0 12.310359,-5.84202 z"
         style="opacity:1;fill:#ffe478;fill-opacity:1;stroke:none;stroke-width:1.32291663;stroke-linecap:round;stroke-linejoin:miter;stroke-miterlimit:4;stroke-dasharray:none;stroke-dashoffset:0;stroke-opacity:1" />
      <path
         style="opacity:1;fill:#ffe478;fill-opacity:1;stroke:none;stroke-width:1.32291663;stroke-linecap:round;stroke-linejoin:miter;stroke-miterlimit:4;stroke-dasharray:none;stroke-dashoffset:0;stroke-opacity:1"
         d="m 49.993844,130.3125 a 15.875,5.2916663 0 0 1 -12.310359,4.5191 15.875,5.2916663 0 0 1 -18.922359,-4.01733 l -0.01912,-0.0289 a 15.875,5.2916663 0 0 1 -0.221173,-0.44752 15.875,5.2916663 0 0 0 0.221173,1.77043 l 0.01912,0.0289 a 15.875,5.2916663 0 0 0 18.922359,4.01733 15.875,5.2916663 0 0 0 12.310359,-5.84202 z"
         id="path869"
         inkscape:connector-curvature="0" />
    </g>
  </g>
</svg>
