<?xml version="1.0" encoding="UTF-8" standalone="no"?>
<!-- Created with Inkscape (http://www.inkscape.org/) -->

<svg
   xmlns:dc="http://purl.org/dc/elements/1.1/"
   xmlns:cc="http://creativecommons.org/ns#"
   xmlns:rdf="http://www.w3.org/1999/02/22-rdf-syntax-ns#"
   xmlns:svg="http://www.w3.org/2000/svg"
   xmlns="http://www.w3.org/2000/svg"
   xmlns:sodipodi="http://sodipodi.sourceforge.net/DTD/sodipodi-0.dtd"
   xmlns:inkscape="http://www.inkscape.org/namespaces/inkscape"
   width="8.0253134mm"
   height="8.0253134mm"
   viewBox="0 0 8.0253136 8.0253132"
   version="1.1"
   id="svg8"
   inkscape:version="0.92.5 (2060ec1f9f, 2020-04-08)"
   sodipodi:docname="points_icon.svg">
  <defs
     id="defs2" />
  <sodipodi:namedview
     id="base"
     pagecolor="#ffffff"
     bordercolor="#666666"
     borderopacity="1.0"
     inkscape:pageopacity="0.0"
     inkscape:pageshadow="2"
     inkscape:zoom="9.0707224"
     inkscape:cx="-1.8498889"
     inkscape:cy="6.1447435"
     inkscape:document-units="mm"
     inkscape:current-layer="layer1"
     showgrid="true"
     fit-margin-top="2"
     fit-margin-left="2"
     fit-margin-right="2"
     fit-margin-bottom="2"
     inkscape:window-width="1920"
     inkscape:window-height="1009"
     inkscape:window-x="0"
     inkscape:window-y="34"
     inkscape:window-maximized="1"
     inkscape:snap-global="false">
    <inkscape:grid
       type="xygrid"
       id="grid823"
       originx="-47.283901"
       originy="-195.08536" />
  </sodipodi:namedview>
  <metadata
     id="metadata5">
    <rdf:RDF>
      <cc:Work
         rdf:about="">
        <dc:format>image/svg+xml</dc:format>
        <dc:type
           rdf:resource="http://purl.org/dc/dcmitype/StillImage" />
        <dc:title></dc:title>
      </cc:Work>
    </rdf:RDF>
  </metadata>
  <g
     inkscape:label="Capa 1"
     inkscape:groupmode="layer"
     id="layer1"
     transform="translate(-47.283898,-93.889336)">
    <g
       id="g1012">
      <g
         style="fill:#e36956"
         transform="matrix(-0.12577971,0.21785686,-0.21785686,-0.12577971,57.989846,99.916224)"
         id="g935">
        <path
           style="opacity:1;fill:#e36956;fill-opacity:1;stroke:none;stroke-width:5;stroke-linecap:round;stroke-linejoin:miter;stroke-miterlimit:4;stroke-dasharray:none;stroke-dashoffset:0;stroke-opacity:1"
           d="m 130,307.51953 c -86.666667,543.33345 -43.333333,271.66672 0,0 z m 0,0 c 0,0 -57.471482,19.17092 -59.910156,95 H 70 v 5 115 h 0.03516 c -0.01117,1.42317 0.433405,2.84267 1.326172,4.23438 l 0.07227,0.10937 c 7.188942,10.77171 39.192668,17.56716 71.517578,15.18555 27.46775,-2.03077 47.01317,-10.15088 47.00781,-19.5293 H 190 v -115 -5 h -0.0898 c -2.43868,-75.82908 -59.91016,-95 -59.91016,-95 z"
           id="rect829"
           inkscape:connector-curvature="0"
           sodipodi:nodetypes="ccccccccccccccccc"
           transform="scale(0.26458333)" />
        <g
           style="fill:#e36956"
           id="g925">
          <g
             style="fill:#e36956"
             id="g876">
            <path
               style="opacity:1;fill:#e36956;fill-opacity:1;stroke:none;stroke-width:1.2306211;stroke-linecap:round;stroke-linejoin:miter;stroke-miterlimit:4;stroke-dasharray:none;stroke-dashoffset:0;stroke-opacity:1"
               d="m 33.843497,84.010374 c 0,0 -0.999407,0.336905 -2.472298,1.172455 4.081734,2.31551 11.831984,8.494872 12.273041,22.209341 h 0.02211 v 1.23062 28.30429 h -0.0101 c 0.0013,2.30825 -4.809282,4.30682 -11.569761,4.80663 -0.233397,0.0172 -0.466807,0.0323 -0.699916,0.0457 1.821598,0.10275 3.729715,0.0954 5.644512,-0.0457 6.760479,-0.49982 11.57108,-2.49837 11.569761,-4.80663 h 0.0101 v -28.30429 -1.23062 h -0.02211 C 47.98862,88.728802 33.843497,84.010374 33.843497,84.010374 Z"
               id="path852"
               inkscape:connector-curvature="0" />
            <path
               style="opacity:1;fill:#e36956;fill-opacity:1;stroke:none;stroke-width:1.32291663;stroke-linecap:round;stroke-linejoin:miter;stroke-miterlimit:4;stroke-dasharray:none;stroke-dashoffset:0;stroke-opacity:1"
               d="m 49.993844,131.61007 a 15.875,5.2916663 0 0 1 -12.310359,4.5191 15.875,5.2916663 0 0 1 -18.922359,-4.01733 l -0.01912,-0.0289 a 15.875,5.2916663 0 0 1 -0.221173,-0.44752 15.875,5.2916663 0 0 0 0.221173,1.77043 l 0.01912,0.0289 a 15.875,5.2916663 0 0 0 18.922359,4.01733 15.875,5.2916663 0 0 0 12.310359,-5.84202 z"
               id="path845"
               inkscape:connector-curvature="0" />
            <path
               inkscape:connector-curvature="0"
               id="path850"
               d="m 49.993844,109.12048 a 15.875,5.2916663 0 0 1 -12.310359,4.5191 15.875,5.2916663 0 0 1 -18.922359,-4.01733 l -0.01912,-0.0289 a 15.875,5.2916663 0 0 1 -0.221173,-0.44752 15.875,5.2916663 0 0 0 0.221173,1.77043 l 0.01912,0.0289 a 15.875,5.2916663 0 0 0 18.922359,4.01733 15.875,5.2916663 0 0 0 12.310359,-5.84202 z"
               style="opacity:1;fill:#e36956;fill-opacity:1;stroke:none;stroke-width:1.32291663;stroke-linecap:round;stroke-linejoin:miter;stroke-miterlimit:4;stroke-dasharray:none;stroke-dashoffset:0;stroke-opacity:1" />
            <path
               style="opacity:1;fill:#e36956;fill-opacity:1;stroke:none;stroke-width:1.32291663;stroke-linecap:round;stroke-linejoin:miter;stroke-miterlimit:4;stroke-dasharray:none;stroke-dashoffset:0;stroke-opacity:1"
               d="m 49.993844,107.79757 a 15.875,5.2916663 0 0 1 -12.310359,4.5191 15.875,5.2916663 0 0 1 -18.922359,-4.01733 l -0.01912,-0.0289 a 15.875,5.2916663 0 0 1 -0.221173,-0.44752 15.875,5.2916663 0 0 0 0.221173,1.77043 l 0.01912,0.0289 a 15.875,5.2916663 0 0 0 18.922359,4.01733 15.875,5.2916663 0 0 0 12.310359,-5.84202 z"
               id="path867"
               inkscape:connector-curvature="0" />
            <path
               inkscape:connector-curvature="0"
               id="path869"
               d="m 49.993844,130.3125 a 15.875,5.2916663 0 0 1 -12.310359,4.5191 15.875,5.2916663 0 0 1 -18.922359,-4.01733 l -0.01912,-0.0289 a 15.875,5.2916663 0 0 1 -0.221173,-0.44752 15.875,5.2916663 0 0 0 0.221173,1.77043 l 0.01912,0.0289 a 15.875,5.2916663 0 0 0 18.922359,4.01733 15.875,5.2916663 0 0 0 12.310359,-5.84202 z"
               style="opacity:1;fill:#e36956;fill-opacity:1;stroke:none;stroke-width:1.32291663;stroke-linecap:round;stroke-linejoin:miter;stroke-miterlimit:4;stroke-dasharray:none;stroke-dashoffset:0;stroke-opacity:1" />
          </g>
        </g>
      </g>
      <path
         inkscape:connector-curvature="0"
         id="path937"
         d="m 35.471243,101.08458 h -6.614584 l 6.614584,-1.322921 1.322916,1.322921 z"
         style="fill:#ff9166;stroke:none;stroke-width:0.26458332px;stroke-linecap:butt;stroke-linejoin:miter;stroke-opacity:1" />
      <path
         style="fill:#ff9166;stroke:none;stroke-width:0.26458332px;stroke-linecap:butt;stroke-linejoin:miter;stroke-opacity:1"
         d="m 39.431218,95.570504 -2.164034,-6.250575 0.913918,6.683382 1.682922,0.817307 z"
         id="path939"
         inkscape:connector-curvature="0" />
      <path
         inkscape:connector-curvature="0"
         id="path941"
         d="m 38.173457,96.847145 -2.474411,-3.512332 1.979538,4.002663 0.989754,0.21213 z"
         style="fill:#ff9166;stroke:none;stroke-width:0.15366018px;stroke-linecap:butt;stroke-linejoin:miter;stroke-opacity:1" />
      <path
         style="fill:#ff9166;stroke:none;stroke-width:0.15366018px;stroke-linecap:butt;stroke-linejoin:miter;stroke-opacity:1"
         d="m 36.633322,99.092584 -4.296095,0.05243 4.40354,-0.74075 0.751768,0.677831 z"
         id="path943"
         inkscape:connector-curvature="0" />
      <path
         inkscape:connector-curvature="0"
         id="path945"
         d="m 28.521601,99.91666 -0.907524,0.28876 -0.412511,-0.701271 z"
         style="fill:#ff9166;stroke:none;stroke-width:0.26458332px;stroke-linecap:butt;stroke-linejoin:miter;stroke-opacity:1" />
      <path
         inkscape:connector-curvature="0"
         id="path947"
         d="m 34.668016,90.59391 -0.288758,-0.907525 0.948776,0.495014 z"
         style="fill:#ff9166;stroke:none;stroke-width:0.26458332px;stroke-linecap:butt;stroke-linejoin:miter;stroke-opacity:1" />
      <path
         inkscape:connector-curvature="0"
         id="path949"
         d="m 33.801742,87.830086 -0.41251,-0.577516 0.660017,0.165005 0.165004,0.453762 z"
         style="fill:#ff9166;stroke:none;stroke-width:0.26458332px;stroke-linecap:butt;stroke-linejoin:miter;stroke-opacity:1" />
      <path
         inkscape:connector-curvature="0"
         id="path951"
         d="m 25.964033,97.524095 -1.155031,-0.123753 1.48504,-0.247507 z"
         style="fill:#ff9166;stroke:none;stroke-width:0.26458332px;stroke-linecap:butt;stroke-linejoin:miter;stroke-opacity:1" />
      <path
         inkscape:connector-curvature="0"
         id="path953"
         d="m 39.431218,95.570504 -2.164034,-6.250575 0.913918,6.683382 1.682922,0.817307 z"
         style="fill:#ff9166;stroke:none;stroke-width:0.26458332px;stroke-linecap:butt;stroke-linejoin:miter;stroke-opacity:1" />
      <path
         style="fill:#ffe478;stroke:none;stroke-width:0.17676526px;stroke-linecap:butt;stroke-linejoin:miter;stroke-opacity:1"
         d="m 36.962129,100.99156 h -4.53458 l 4.53458,-0.86133 0.906915,0.86133 z"
         id="path955"
         inkscape:connector-curvature="0" />
      <path
         style="fill:#ffe478;stroke:none;stroke-width:0.10265871px;stroke-linecap:butt;stroke-linejoin:miter;stroke-opacity:1"
         d="m 38.567105,98.603893 -1.696314,-2.2868 1.357058,2.60606 0.678518,0.13811 z"
         id="path957"
         inkscape:connector-curvature="0" />
      <path
         inkscape:connector-curvature="0"
         id="path959"
         d="m 38.295048,99.859602 -2.945157,0.0342 3.018814,-0.482294 0.515369,0.441324 z"
         style="fill:#ffe478;stroke:none;stroke-width:0.10265871px;stroke-linecap:butt;stroke-linejoin:miter;stroke-opacity:1" />
      <path
         style="fill:#ffe478;stroke:none;stroke-width:0.17676526px;stroke-linecap:butt;stroke-linejoin:miter;stroke-opacity:1"
         d="m 39.67686,97.401444 -1.483537,-4.06963 0.626529,4.35142 1.153715,0.53213 z"
         id="path961"
         inkscape:connector-curvature="0" />
      <g
         id="g979"
         transform="matrix(-0.12577971,0.21785686,-0.21785686,-0.12577971,58.196102,99.462462)"
         style="fill:#964253">
        <path
           transform="scale(0.26458333)"
           sodipodi:nodetypes="ccccccccccccccccc"
           inkscape:connector-curvature="0"
           id="path963"
           d="m 130,307.51953 c -86.666667,543.33345 -43.333333,271.66672 0,0 z m 0,0 c 0,0 -57.471482,19.17092 -59.910156,95 H 70 v 5 115 h 0.03516 c -0.01117,1.42317 0.433405,2.84267 1.326172,4.23438 l 0.07227,0.10937 c 7.188942,10.77171 39.192668,17.56716 71.517578,15.18555 27.46775,-2.03077 47.01317,-10.15088 47.00781,-19.5293 H 190 v -115 -5 h -0.0898 c -2.43868,-75.82908 -59.91016,-95 -59.91016,-95 z"
           style="opacity:1;fill:#964253;fill-opacity:1;stroke:none;stroke-width:5;stroke-linecap:round;stroke-linejoin:miter;stroke-miterlimit:4;stroke-dasharray:none;stroke-dashoffset:0;stroke-opacity:1" />
        <g
           id="g977"
           style="fill:#964253">
          <g
             id="g975"
             style="fill:#964253">
            <path
               inkscape:connector-curvature="0"
               id="path965"
               d="m 33.843497,84.010374 c 0,0 -0.999407,0.336905 -2.472298,1.172455 4.081734,2.31551 11.831984,8.494872 12.273041,22.209341 h 0.02211 v 1.23062 28.30429 h -0.0101 c 0.0013,2.30825 -4.809282,4.30682 -11.569761,4.80663 -0.233397,0.0172 -0.466807,0.0323 -0.699916,0.0457 1.821598,0.10275 3.729715,0.0954 5.644512,-0.0457 6.760479,-0.49982 11.57108,-2.49837 11.569761,-4.80663 h 0.0101 v -28.30429 -1.23062 h -0.02211 C 47.98862,88.728802 33.843497,84.010374 33.843497,84.010374 Z"
               style="opacity:1;fill:#964253;fill-opacity:1;stroke:none;stroke-width:1.2306211;stroke-linecap:round;stroke-linejoin:miter;stroke-miterlimit:4;stroke-dasharray:none;stroke-dashoffset:0;stroke-opacity:1" />
            <path
               inkscape:connector-curvature="0"
               id="path967"
               d="m 49.993844,131.61007 a 15.875,5.2916663 0 0 1 -12.310359,4.5191 15.875,5.2916663 0 0 1 -18.922359,-4.01733 l -0.01912,-0.0289 a 15.875,5.2916663 0 0 1 -0.221173,-0.44752 15.875,5.2916663 0 0 0 0.221173,1.77043 l 0.01912,0.0289 a 15.875,5.2916663 0 0 0 18.922359,4.01733 15.875,5.2916663 0 0 0 12.310359,-5.84202 z"
               style="opacity:1;fill:#964253;fill-opacity:1;stroke:none;stroke-width:1.32291663;stroke-linecap:round;stroke-linejoin:miter;stroke-miterlimit:4;stroke-dasharray:none;stroke-dashoffset:0;stroke-opacity:1" />
            <path
               style="opacity:1;fill:#964253;fill-opacity:1;stroke:none;stroke-width:1.32291663;stroke-linecap:round;stroke-linejoin:miter;stroke-miterlimit:4;stroke-dasharray:none;stroke-dashoffset:0;stroke-opacity:1"
               d="m 49.993844,109.12048 a 15.875,5.2916663 0 0 1 -12.310359,4.5191 15.875,5.2916663 0 0 1 -18.922359,-4.01733 l -0.01912,-0.0289 a 15.875,5.2916663 0 0 1 -0.221173,-0.44752 15.875,5.2916663 0 0 0 0.221173,1.77043 l 0.01912,0.0289 a 15.875,5.2916663 0 0 0 18.922359,4.01733 15.875,5.2916663 0 0 0 12.310359,-5.84202 z"
               id="path969"
               inkscape:connector-curvature="0" />
            <path
               inkscape:connector-curvature="0"
               id="path971"
               d="m 49.993844,107.79757 a 15.875,5.2916663 0 0 1 -12.310359,4.5191 15.875,5.2916663 0 0 1 -18.922359,-4.01733 l -0.01912,-0.0289 a 15.875,5.2916663 0 0 1 -0.221173,-0.44752 15.875,5.2916663 0 0 0 0.221173,1.77043 l 0.01912,0.0289 a 15.875,5.2916663 0 0 0 18.922359,4.01733 15.875,5.2916663 0 0 0 12.310359,-5.84202 z"
               style="opacity:1;fill:#964253;fill-opacity:1;stroke:none;stroke-width:1.32291663;stroke-linecap:round;stroke-linejoin:miter;stroke-miterlimit:4;stroke-dasharray:none;stroke-dashoffset:0;stroke-opacity:1" />
            <path
               style="opacity:1;fill:#964253;fill-opacity:1;stroke:none;stroke-width:1.32291663;stroke-linecap:round;stroke-linejoin:miter;stroke-miterlimit:4;stroke-dasharray:none;stroke-dashoffset:0;stroke-opacity:1"
               d="m 49.993844,130.3125 a 15.875,5.2916663 0 0 1 -12.310359,4.5191 15.875,5.2916663 0 0 1 -18.922359,-4.01733 l -0.01912,-0.0289 a 15.875,5.2916663 0 0 1 -0.221173,-0.44752 15.875,5.2916663 0 0 0 0.221173,1.77043 l 0.01912,0.0289 a 15.875,5.2916663 0 0 0 18.922359,4.01733 15.875,5.2916663 0 0 0 12.310359,-5.84202 z"
               id="path973"
               inkscape:connector-curvature="0" />
          </g>
        </g>
      </g>
    </g>
    <g
       id="g1092"
       style="fill:#ffe478"
       transform="translate(0,0.02062556)">
      <path
         d="m 24.732477,109.95193 a 1.5751226,1.5751226 0 0 1 1.20374,-1.87245 1.5751226,1.5751226 0 0 1 1.874137,1.20111 1.5751226,1.5751226 0 0 1 -1.198474,1.87582 1.5751226,1.5751226 0 0 1 -1.877505,-1.19583"
         sodipodi:open="true"
         sodipodi:end="2.9226236"
         sodipodi:start="2.9282436"
         sodipodi:ry="1.5751226"
         sodipodi:rx="1.5751226"
         sodipodi:cy="109.61842"
         sodipodi:cx="26.271887"
         sodipodi:type="arc"
         id="path1033"
         style="opacity:1;fill:#ffe478;fill-opacity:1;stroke:none;stroke-width:0.52916664;stroke-linecap:round;stroke-linejoin:miter;stroke-miterlimit:4;stroke-dasharray:none;stroke-dashoffset:0;stroke-opacity:1" />
      <rect
         transform="rotate(12.642153)"
         ry="0.38925427"
         y="102.99613"
         x="48.612022"
         height="5.2477412"
         width="1.6146897"
         id="rect1035"
         style="opacity:1;fill:#ffe478;fill-opacity:1;stroke:none;stroke-width:0.52308577;stroke-linecap:round;stroke-linejoin:miter;stroke-miterlimit:4;stroke-dasharray:none;stroke-dashoffset:0;stroke-opacity:1" />
      <g
         transform="translate(0.11344054,0.06187666)"
         id="g1046"
         style="fill:#ffe478">
        <path
           inkscape:connector-curvature="0"
           style="opacity:1;fill:#ffe478;fill-opacity:1;stroke:none;stroke-width:1.09062099;stroke-linecap:round;stroke-linejoin:miter;stroke-miterlimit:4;stroke-dasharray:none;stroke-dashoffset:0;stroke-opacity:1"
           d="m 33.320312,117.17578 -0.957031,4.26172 1.904297,2.45508 c 0.275516,0.35531 0.783358,0.41809 1.138672,0.14258 l 1.376953,-1.06836 c 0.355314,-0.27552 0.420047,-0.78336 0.144531,-1.13868 z"
           transform="matrix(0.26458333,0,0,0.26458333,17.521206,81.398143)"
           id="rect1037" />
        <rect
           style="opacity:1;fill:#ffe478;fill-opacity:1;stroke:none;stroke-width:0.23718041;stroke-linecap:round;stroke-linejoin:miter;stroke-miterlimit:4;stroke-dasharray:none;stroke-dashoffset:0;stroke-opacity:1"
           id="rect1039"
           width="0.72736287"
           height="2.3950918"
           x="107.68357"
           y="-50.425003"
           ry="0.17765734"
           transform="matrix(0.62339238,0.78190916,0.81032527,-0.58598034,0,0)" />
      </g>
      <g
         transform="rotate(180,25.341366,112.56789)"
         id="g1052"
         style="fill:#ffe478">
        <path
           inkscape:connector-curvature="0"
           id="path1048"
           transform="matrix(0.26458333,0,0,0.26458333,17.521206,81.398143)"
           d="m 33.320312,117.17578 -0.957031,4.26172 1.904297,2.45508 c 0.275516,0.35531 0.783358,0.41809 1.138672,0.14258 l 1.376953,-1.06836 c 0.355314,-0.27552 0.420047,-0.78336 0.144531,-1.13868 z"
           style="opacity:1;fill:#ffe478;fill-opacity:1;stroke:none;stroke-width:1.09062099;stroke-linecap:round;stroke-linejoin:miter;stroke-miterlimit:4;stroke-dasharray:none;stroke-dashoffset:0;stroke-opacity:1" />
        <rect
           transform="matrix(0.62339238,0.78190916,0.81032527,-0.58598034,0,0)"
           ry="0.17765734"
           y="-50.425003"
           x="107.68357"
           height="2.3950918"
           width="0.72736287"
           id="rect1050"
           style="opacity:1;fill:#ffe478;fill-opacity:1;stroke:none;stroke-width:0.23718041;stroke-linecap:round;stroke-linejoin:miter;stroke-miterlimit:4;stroke-dasharray:none;stroke-dashoffset:0;stroke-opacity:1" />
      </g>
      <g
         transform="translate(0.02166204,-0.03042009)"
         id="g1067"
         style="fill:#ffe478">
        <path
           style="opacity:1;fill:#ffe478;fill-opacity:1;stroke:none;stroke-width:0.36298576;stroke-linecap:round;stroke-linejoin:miter;stroke-miterlimit:4;stroke-dasharray:none;stroke-dashoffset:0;stroke-opacity:1"
           d="m 25.570425,116.15531 -0.04225,0.18851 c -0.06007,0.26776 -0.324428,0.43514 -0.592194,0.37508 l -0.639648,-0.14366 1.338449,1.06152 c 0.117239,0.093 0.285969,0.0737 0.378979,-0.0435 l 0.360777,-0.45439 c 0.09301,-0.11723 0.07432,-0.28666 -0.04291,-0.37962 z"
           id="path1054"
           inkscape:connector-curvature="0" />
        <rect
           transform="matrix(0.77493237,0.63204417,-0.59495026,0.80376252,0,0)"
           ry="0.22347885"
           y="74.07531"
           x="90.060974"
           height="3.0128357"
           width="0.91496491"
           id="rect1056"
           style="opacity:1;fill:#ffe478;fill-opacity:1;stroke:none;stroke-width:0.29835418;stroke-linecap:round;stroke-linejoin:miter;stroke-miterlimit:4;stroke-dasharray:none;stroke-dashoffset:0;stroke-opacity:1" />
      </g>
      <path
         inkscape:connector-curvature="0"
         id="rect1071"
         d="m 23.62448,115.90487 c -0.05742,0.007 -0.112163,0.0378 -0.150378,0.0894 l -1.583883,2.13992 c -0.07643,0.10325 -0.05769,0.2516 0.04186,0.3328 l 0.376204,0.30695 c 0.09955,0.0812 0.241381,0.0635 0.317811,-0.0398 l 1.583882,-2.13992 c 0.01394,-0.0188 0.02124,-0.0403 0.02894,-0.0615 l -0.286804,-0.0646 c -0.212865,-0.0477 -0.345919,-0.25739 -0.298173,-0.47026 l 0.02015,-0.0894 c -0.01666,-0.002 -0.03311,-0.006 -0.04961,-0.004 z"
         style="opacity:1;fill:#ffe478;fill-opacity:1;stroke:none;stroke-width:0.30940625;stroke-linecap:round;stroke-linejoin:miter;stroke-miterlimit:4;stroke-dasharray:none;stroke-dashoffset:0;stroke-opacity:1" />
    </g>
    <g
       id="g1118"
       transform="translate(2.4475654,0.02062556)"
       style="fill:#ffb570">
      <path
         style="opacity:1;fill:#ffb570;fill-opacity:1;stroke:none;stroke-width:0.52916664;stroke-linecap:round;stroke-linejoin:miter;stroke-miterlimit:4;stroke-dasharray:none;stroke-dashoffset:0;stroke-opacity:1"
         id="path1094"
         sodipodi:type="arc"
         sodipodi:cx="26.271887"
         sodipodi:cy="109.61842"
         sodipodi:rx="1.5751226"
         sodipodi:ry="1.5751226"
         sodipodi:start="2.9282436"
         sodipodi:end="2.9226236"
         sodipodi:open="true"
         d="m 24.732477,109.95193 a 1.5751226,1.5751226 0 0 1 1.20374,-1.87245 1.5751226,1.5751226 0 0 1 1.874137,1.20111 1.5751226,1.5751226 0 0 1 -1.198474,1.87582 1.5751226,1.5751226 0 0 1 -1.877505,-1.19583" />
      <rect
         style="opacity:1;fill:#ffb570;fill-opacity:1;stroke:none;stroke-width:0.52308577;stroke-linecap:round;stroke-linejoin:miter;stroke-miterlimit:4;stroke-dasharray:none;stroke-dashoffset:0;stroke-opacity:1"
         id="rect1096"
         width="1.6146897"
         height="5.2477412"
         x="48.612022"
         y="102.99613"
         ry="0.38925427"
         transform="rotate(12.642153)" />
      <g
         id="g1102"
         transform="translate(0.11344054,0.06187666)"
         style="fill:#ffb570">
        <path
           id="path1098"
           transform="matrix(0.26458333,0,0,0.26458333,17.521206,81.398143)"
           d="m 33.320312,117.17578 -0.957031,4.26172 1.904297,2.45508 c 0.275516,0.35531 0.783358,0.41809 1.138672,0.14258 l 1.376953,-1.06836 c 0.355314,-0.27552 0.420047,-0.78336 0.144531,-1.13868 z"
           style="opacity:1;fill:#ffb570;fill-opacity:1;stroke:none;stroke-width:1.09062099;stroke-linecap:round;stroke-linejoin:miter;stroke-miterlimit:4;stroke-dasharray:none;stroke-dashoffset:0;stroke-opacity:1"
           inkscape:connector-curvature="0" />
        <rect
           transform="matrix(0.62339238,0.78190916,0.81032527,-0.58598034,0,0)"
           ry="0.17765734"
           y="-50.425003"
           x="107.68357"
           height="2.3950918"
           width="0.72736287"
           id="rect1100"
           style="opacity:1;fill:#ffb570;fill-opacity:1;stroke:none;stroke-width:0.23718041;stroke-linecap:round;stroke-linejoin:miter;stroke-miterlimit:4;stroke-dasharray:none;stroke-dashoffset:0;stroke-opacity:1" />
      </g>
      <g
         id="g1108"
         transform="rotate(180,25.341366,112.56789)"
         style="fill:#ffb570">
        <path
           style="opacity:1;fill:#ffb570;fill-opacity:1;stroke:none;stroke-width:1.09062099;stroke-linecap:round;stroke-linejoin:miter;stroke-miterlimit:4;stroke-dasharray:none;stroke-dashoffset:0;stroke-opacity:1"
           d="m 33.320312,117.17578 -0.957031,4.26172 1.904297,2.45508 c 0.275516,0.35531 0.783358,0.41809 1.138672,0.14258 l 1.376953,-1.06836 c 0.355314,-0.27552 0.420047,-0.78336 0.144531,-1.13868 z"
           transform="matrix(0.26458333,0,0,0.26458333,17.521206,81.398143)"
           id="path1104"
           inkscape:connector-curvature="0" />
        <rect
           style="opacity:1;fill:#ffb570;fill-opacity:1;stroke:none;stroke-width:0.23718041;stroke-linecap:round;stroke-linejoin:miter;stroke-miterlimit:4;stroke-dasharray:none;stroke-dashoffset:0;stroke-opacity:1"
           id="rect1106"
           width="0.72736287"
           height="2.3950918"
           x="107.68357"
           y="-50.425003"
           ry="0.17765734"
           transform="matrix(0.62339238,0.78190916,0.81032527,-0.58598034,0,0)" />
      </g>
      <g
         id="g1114"
         transform="translate(0.02166204,-0.03042009)"
         style="fill:#ffb570">
        <path
           inkscape:connector-curvature="0"
           id="path1110"
           d="m 25.570425,116.15531 -0.04225,0.18851 c -0.06007,0.26776 -0.324428,0.43514 -0.592194,0.37508 l -0.639648,-0.14366 1.338449,1.06152 c 0.117239,0.093 0.285969,0.0737 0.378979,-0.0435 l 0.360777,-0.45439 c 0.09301,-0.11723 0.07432,-0.28666 -0.04291,-0.37962 z"
           style="opacity:1;fill:#ffb570;fill-opacity:1;stroke:none;stroke-width:0.36298576;stroke-linecap:round;stroke-linejoin:miter;stroke-miterlimit:4;stroke-dasharray:none;stroke-dashoffset:0;stroke-opacity:1" />
        <rect
           style="opacity:1;fill:#ffb570;fill-opacity:1;stroke:none;stroke-width:0.29835418;stroke-linecap:round;stroke-linejoin:miter;stroke-miterlimit:4;stroke-dasharray:none;stroke-dashoffset:0;stroke-opacity:1"
           id="rect1112"
           width="0.91496491"
           height="3.0128357"
           x="90.060974"
           y="74.07531"
           ry="0.22347885"
           transform="matrix(0.77493237,0.63204417,-0.59495026,0.80376252,0,0)" />
      </g>
      <path
         style="opacity:1;fill:#ffb570;fill-opacity:1;stroke:none;stroke-width:0.30940625;stroke-linecap:round;stroke-linejoin:miter;stroke-miterlimit:4;stroke-dasharray:none;stroke-dashoffset:0;stroke-opacity:1"
         d="m 23.62448,115.90487 c -0.05742,0.007 -0.112163,0.0378 -0.150378,0.0894 l -1.583883,2.13992 c -0.07643,0.10325 -0.05769,0.2516 0.04186,0.3328 l 0.376204,0.30695 c 0.09955,0.0812 0.241381,0.0635 0.317811,-0.0398 l 1.583882,-2.13992 c 0.01394,-0.0188 0.02124,-0.0403 0.02894,-0.0615 l -0.286804,-0.0646 c -0.212865,-0.0477 -0.345919,-0.25739 -0.298173,-0.47026 l 0.02015,-0.0894 c -0.01666,-0.002 -0.03311,-0.006 -0.04961,-0.004 z"
         id="path1116"
         inkscape:connector-curvature="0" />
    </g>
    <g
       transform="translate(4.8951317,0.02062556)"
       id="g1144"
       style="fill:#e36956">
      <path
         d="m 24.732477,109.95193 a 1.5751226,1.5751226 0 0 1 1.20374,-1.87245 1.5751226,1.5751226 0 0 1 1.874137,1.20111 1.5751226,1.5751226 0 0 1 -1.198474,1.87582 1.5751226,1.5751226 0 0 1 -1.877505,-1.19583"
         sodipodi:open="true"
         sodipodi:end="2.9226236"
         sodipodi:start="2.9282436"
         sodipodi:ry="1.5751226"
         sodipodi:rx="1.5751226"
         sodipodi:cy="109.61842"
         sodipodi:cx="26.271887"
         sodipodi:type="arc"
         id="path1120"
         style="opacity:1;fill:#e36956;fill-opacity:1;stroke:none;stroke-width:0.52916664;stroke-linecap:round;stroke-linejoin:miter;stroke-miterlimit:4;stroke-dasharray:none;stroke-dashoffset:0;stroke-opacity:1" />
      <rect
         transform="rotate(12.642153)"
         ry="0.38925427"
         y="102.99613"
         x="48.612022"
         height="5.2477412"
         width="1.6146897"
         id="rect1122"
         style="opacity:1;fill:#e36956;fill-opacity:1;stroke:none;stroke-width:0.52308577;stroke-linecap:round;stroke-linejoin:miter;stroke-miterlimit:4;stroke-dasharray:none;stroke-dashoffset:0;stroke-opacity:1" />
      <g
         transform="translate(0.11344054,0.06187666)"
         id="g1128"
         style="fill:#e36956">
        <path
           inkscape:connector-curvature="0"
           style="opacity:1;fill:#e36956;fill-opacity:1;stroke:none;stroke-width:1.09062099;stroke-linecap:round;stroke-linejoin:miter;stroke-miterlimit:4;stroke-dasharray:none;stroke-dashoffset:0;stroke-opacity:1"
           d="m 33.320312,117.17578 -0.957031,4.26172 1.904297,2.45508 c 0.275516,0.35531 0.783358,0.41809 1.138672,0.14258 l 1.376953,-1.06836 c 0.355314,-0.27552 0.420047,-0.78336 0.144531,-1.13868 z"
           transform="matrix(0.26458333,0,0,0.26458333,17.521206,81.398143)"
           id="path1124" />
        <rect
           style="opacity:1;fill:#e36956;fill-opacity:1;stroke:none;stroke-width:0.23718041;stroke-linecap:round;stroke-linejoin:miter;stroke-miterlimit:4;stroke-dasharray:none;stroke-dashoffset:0;stroke-opacity:1"
           id="rect1126"
           width="0.72736287"
           height="2.3950918"
           x="107.68357"
           y="-50.425003"
           ry="0.17765734"
           transform="matrix(0.62339238,0.78190916,0.81032527,-0.58598034,0,0)" />
      </g>
      <g
         transform="rotate(180,25.341366,112.56789)"
         id="g1134"
         style="fill:#e36956">
        <path
           inkscape:connector-curvature="0"
           id="path1130"
           transform="matrix(0.26458333,0,0,0.26458333,17.521206,81.398143)"
           d="m 33.320312,117.17578 -0.957031,4.26172 1.904297,2.45508 c 0.275516,0.35531 0.783358,0.41809 1.138672,0.14258 l 1.376953,-1.06836 c 0.355314,-0.27552 0.420047,-0.78336 0.144531,-1.13868 z"
           style="opacity:1;fill:#e36956;fill-opacity:1;stroke:none;stroke-width:1.09062099;stroke-linecap:round;stroke-linejoin:miter;stroke-miterlimit:4;stroke-dasharray:none;stroke-dashoffset:0;stroke-opacity:1" />
        <rect
           transform="matrix(0.62339238,0.78190916,0.81032527,-0.58598034,0,0)"
           ry="0.17765734"
           y="-50.425003"
           x="107.68357"
           height="2.3950918"
           width="0.72736287"
           id="rect1132"
           style="opacity:1;fill:#e36956;fill-opacity:1;stroke:none;stroke-width:0.23718041;stroke-linecap:round;stroke-linejoin:miter;stroke-miterlimit:4;stroke-dasharray:none;stroke-dashoffset:0;stroke-opacity:1" />
      </g>
      <g
         transform="translate(0.02166204,-0.03042009)"
         id="g1140"
         style="fill:#e36956">
        <path
           style="opacity:1;fill:#e36956;fill-opacity:1;stroke:none;stroke-width:0.36298576;stroke-linecap:round;stroke-linejoin:miter;stroke-miterlimit:4;stroke-dasharray:none;stroke-dashoffset:0;stroke-opacity:1"
           d="m 25.570425,116.15531 -0.04225,0.18851 c -0.06007,0.26776 -0.324428,0.43514 -0.592194,0.37508 l -0.639648,-0.14366 1.338449,1.06152 c 0.117239,0.093 0.285969,0.0737 0.378979,-0.0435 l 0.360777,-0.45439 c 0.09301,-0.11723 0.07432,-0.28666 -0.04291,-0.37962 z"
           id="path1136"
           inkscape:connector-curvature="0" />
        <rect
           transform="matrix(0.77493237,0.63204417,-0.59495026,0.80376252,0,0)"
           ry="0.22347885"
           y="74.07531"
           x="90.060974"
           height="3.0128357"
           width="0.91496491"
           id="rect1138"
           style="opacity:1;fill:#e36956;fill-opacity:1;stroke:none;stroke-width:0.29835418;stroke-linecap:round;stroke-linejoin:miter;stroke-miterlimit:4;stroke-dasharray:none;stroke-dashoffset:0;stroke-opacity:1" />
      </g>
      <path
         inkscape:connector-curvature="0"
         id="path1142"
         d="m 23.62448,115.90487 c -0.05742,0.007 -0.112163,0.0378 -0.150378,0.0894 l -1.583883,2.13992 c -0.07643,0.10325 -0.05769,0.2516 0.04186,0.3328 l 0.376204,0.30695 c 0.09955,0.0812 0.241381,0.0635 0.317811,-0.0398 l 1.583882,-2.13992 c 0.01394,-0.0188 0.02124,-0.0403 0.02894,-0.0615 l -0.286804,-0.0646 c -0.212865,-0.0477 -0.345919,-0.25739 -0.298173,-0.47026 l 0.02015,-0.0894 c -0.01666,-0.002 -0.03311,-0.006 -0.04961,-0.004 z"
         style="opacity:1;fill:#e36956;fill-opacity:1;stroke:none;stroke-width:0.30940625;stroke-linecap:round;stroke-linejoin:miter;stroke-miterlimit:4;stroke-dasharray:none;stroke-dashoffset:0;stroke-opacity:1" />
    </g>
    <g
       id="g1170"
       transform="translate(7.3426971,0.02062556)">
      <path
         style="opacity:1;fill:#964253;fill-opacity:1;stroke:none;stroke-width:0.52916664;stroke-linecap:round;stroke-linejoin:miter;stroke-miterlimit:4;stroke-dasharray:none;stroke-dashoffset:0;stroke-opacity:1"
         id="path1146"
         sodipodi:type="arc"
         sodipodi:cx="26.271887"
         sodipodi:cy="109.61842"
         sodipodi:rx="1.5751226"
         sodipodi:ry="1.5751226"
         sodipodi:start="2.9282436"
         sodipodi:end="2.9226236"
         sodipodi:open="true"
         d="m 24.732477,109.95193 a 1.5751226,1.5751226 0 0 1 1.20374,-1.87245 1.5751226,1.5751226 0 0 1 1.874137,1.20111 1.5751226,1.5751226 0 0 1 -1.198474,1.87582 1.5751226,1.5751226 0 0 1 -1.877505,-1.19583" />
      <rect
         style="opacity:1;fill:#964253;fill-opacity:1;stroke:none;stroke-width:0.52308577;stroke-linecap:round;stroke-linejoin:miter;stroke-miterlimit:4;stroke-dasharray:none;stroke-dashoffset:0;stroke-opacity:1"
         id="rect1148"
         width="1.6146897"
         height="5.2477412"
         x="48.612022"
         y="102.99613"
         ry="0.38925427"
         transform="rotate(12.642153)" />
      <g
         id="g1154"
         transform="translate(0.11344054,0.06187666)">
        <path
           id="path1150"
           transform="matrix(0.26458333,0,0,0.26458333,17.521206,81.398143)"
           d="m 33.320312,117.17578 -0.957031,4.26172 1.904297,2.45508 c 0.275516,0.35531 0.783358,0.41809 1.138672,0.14258 l 1.376953,-1.06836 c 0.355314,-0.27552 0.420047,-0.78336 0.144531,-1.13868 z"
           style="opacity:1;fill:#964253;fill-opacity:1;stroke:none;stroke-width:1.09062099;stroke-linecap:round;stroke-linejoin:miter;stroke-miterlimit:4;stroke-dasharray:none;stroke-dashoffset:0;stroke-opacity:1"
           inkscape:connector-curvature="0" />
        <rect
           transform="matrix(0.62339238,0.78190916,0.81032527,-0.58598034,0,0)"
           ry="0.17765734"
           y="-50.425003"
           x="107.68357"
           height="2.3950918"
           width="0.72736287"
           id="rect1152"
           style="opacity:1;fill:#964253;fill-opacity:1;stroke:none;stroke-width:0.23718041;stroke-linecap:round;stroke-linejoin:miter;stroke-miterlimit:4;stroke-dasharray:none;stroke-dashoffset:0;stroke-opacity:1" />
      </g>
      <g
         id="g1160"
         transform="rotate(180,25.341366,112.56789)">
        <path
           style="opacity:1;fill:#964253;fill-opacity:1;stroke:none;stroke-width:1.09062099;stroke-linecap:round;stroke-linejoin:miter;stroke-miterlimit:4;stroke-dasharray:none;stroke-dashoffset:0;stroke-opacity:1"
           d="m 33.320312,117.17578 -0.957031,4.26172 1.904297,2.45508 c 0.275516,0.35531 0.783358,0.41809 1.138672,0.14258 l 1.376953,-1.06836 c 0.355314,-0.27552 0.420047,-0.78336 0.144531,-1.13868 z"
           transform="matrix(0.26458333,0,0,0.26458333,17.521206,81.398143)"
           id="path1156"
           inkscape:connector-curvature="0" />
        <rect
           style="opacity:1;fill:#964253;fill-opacity:1;stroke:none;stroke-width:0.23718041;stroke-linecap:round;stroke-linejoin:miter;stroke-miterlimit:4;stroke-dasharray:none;stroke-dashoffset:0;stroke-opacity:1"
           id="rect1158"
           width="0.72736287"
           height="2.3950918"
           x="107.68357"
           y="-50.425003"
           ry="0.17765734"
           transform="matrix(0.62339238,0.78190916,0.81032527,-0.58598034,0,0)" />
      </g>
      <g
         id="g1166"
         transform="translate(0.02166204,-0.03042009)">
        <path
           inkscape:connector-curvature="0"
           id="path1162"
           d="m 25.570425,116.15531 -0.04225,0.18851 c -0.06007,0.26776 -0.324428,0.43514 -0.592194,0.37508 l -0.639648,-0.14366 1.338449,1.06152 c 0.117239,0.093 0.285969,0.0737 0.378979,-0.0435 l 0.360777,-0.45439 c 0.09301,-0.11723 0.07432,-0.28666 -0.04291,-0.37962 z"
           style="opacity:1;fill:#964253;fill-opacity:1;stroke:none;stroke-width:0.36298576;stroke-linecap:round;stroke-linejoin:miter;stroke-miterlimit:4;stroke-dasharray:none;stroke-dashoffset:0;stroke-opacity:1" />
        <rect
           style="opacity:1;fill:#964253;fill-opacity:1;stroke:none;stroke-width:0.29835418;stroke-linecap:round;stroke-linejoin:miter;stroke-miterlimit:4;stroke-dasharray:none;stroke-dashoffset:0;stroke-opacity:1"
           id="rect1164"
           width="0.91496491"
           height="3.0128357"
           x="90.060974"
           y="74.07531"
           ry="0.22347885"
           transform="matrix(0.77493237,0.63204417,-0.59495026,0.80376252,0,0)" />
      </g>
      <path
         style="opacity:1;fill:#964253;fill-opacity:1;stroke:none;stroke-width:0.30940625;stroke-linecap:round;stroke-linejoin:miter;stroke-miterlimit:4;stroke-dasharray:none;stroke-dashoffset:0;stroke-opacity:1"
         d="m 23.62448,115.90487 c -0.05742,0.007 -0.112163,0.0378 -0.150378,0.0894 l -1.583883,2.13992 c -0.07643,0.10325 -0.05769,0.2516 0.04186,0.3328 l 0.376204,0.30695 c 0.09955,0.0812 0.241381,0.0635 0.317811,-0.0398 l 1.583882,-2.13992 c 0.01394,-0.0188 0.02124,-0.0403 0.02894,-0.0615 l -0.286804,-0.0646 c -0.212865,-0.0477 -0.345919,-0.25739 -0.298173,-0.47026 l 0.02015,-0.0894 c -0.01666,-0.002 -0.03311,-0.006 -0.04961,-0.004 z"
         id="path1168"
         inkscape:connector-curvature="0" />
    </g>
    <path
       style="fill:#e36956;stroke-width:0.12699999"
       d="m 46.751512,115.37821 -2.351484,-2.31298 v -2.04876 -2.04877 l 0.670744,-0.66241 0.670743,-0.66241 h 1.144314 1.144314 l 0.561349,0.57197 0.56135,0.57198 0.580705,-0.57198 0.580705,-0.57197 h 1.142976 1.142976 l 0.662412,0.67074 0.662412,0.67075 v 2.0828 2.0828 l -2.109636,2.03355 c -1.1603,1.11845 -2.245257,2.14022 -2.411017,2.27061 l -0.30138,0.23706 z"
       id="path1202"
       inkscape:connector-curvature="0" />
    <path
       style="opacity:1;fill:#ffe478;fill-opacity:1;stroke:none;stroke-width:0.52916664;stroke-linecap:round;stroke-linejoin:miter;stroke-miterlimit:4;stroke-dasharray:none;stroke-dashoffset:0;stroke-opacity:1"
       id="path906"
       sodipodi:type="arc"
       sodipodi:cx="51.296555"
       sodipodi:cy="97.901993"
       sodipodi:rx="2.0126567"
       sodipodi:ry="2.0126567"
       sodipodi:start="2.9282436"
       sodipodi:end="2.9226236"
       sodipodi:open="true"
       d="m 49.32953,98.328141 a 2.0126567,2.0126567 0 0 1 1.538113,-2.392572 2.0126567,2.0126567 0 0 1 2.394731,1.53475 2.0126567,2.0126567 0 0 1 -1.531384,2.396884 2.0126567,2.0126567 0 0 1 -2.399034,-1.528014" />
    <path
       style="opacity:1;fill:#e36956;fill-opacity:1;stroke:none;stroke-width:0.443167;stroke-linecap:round;stroke-linejoin:miter;stroke-miterlimit:4;stroke-dasharray:none;stroke-dashoffset:0;stroke-opacity:1"
       d="m 51.392509,96.213346 a 1.6855617,1.6855617 0 0 0 -0.202974,0.01644 1.6855617,1.6855617 0 0 1 1.425145,1.307429 1.6855617,1.6855617 0 0 1 -1.28276,2.007236 1.6855617,1.6855617 0 0 1 -0.136759,0.02294 1.6855617,1.6855617 0 0 0 0.585984,-0.02294 1.6855617,1.6855617 0 0 0 1.282329,-2.007236 1.6855617,1.6855617 0 0 0 -1.670965,-1.323874 z"
       id="path908"
       inkscape:connector-curvature="0" />
  </g>
</svg>
