<?xml version="1.0" encoding="UTF-8" standalone="no"?>
<!-- Created with Inkscape (http://www.inkscape.org/) -->

<svg
   xmlns:dc="http://purl.org/dc/elements/1.1/"
   xmlns:cc="http://creativecommons.org/ns#"
   xmlns:rdf="http://www.w3.org/1999/02/22-rdf-syntax-ns#"
   xmlns:svg="http://www.w3.org/2000/svg"
   xmlns="http://www.w3.org/2000/svg"
   xmlns:sodipodi="http://sodipodi.sourceforge.net/DTD/sodipodi-0.dtd"
   xmlns:inkscape="http://www.inkscape.org/namespaces/inkscape"
   width="14.200227mm"
   height="9.9260607mm"
   viewBox="0 0 14.200227 9.9260609"
   version="1.1"
   id="svg8"
   inkscape:version="0.92.5 (2060ec1f9f, 2020-04-08)"
   sodipodi:docname="pistolbullet.svg">
  <defs
     id="defs2" />
  <sodipodi:namedview
     id="base"
     pagecolor="#ffffff"
     bordercolor="#666666"
     borderopacity="1.0"
     inkscape:pageopacity="0.0"
     inkscape:pageshadow="2"
     inkscape:zoom="3.5003722"
     inkscape:cx="47.620587"
     inkscape:cy="22.090889"
     inkscape:document-units="mm"
     inkscape:current-layer="layer1"
     showgrid="false"
     fit-margin-top="1"
     fit-margin-left="1"
     fit-margin-right="1"
     fit-margin-bottom="1"
     inkscape:window-width="1920"
     inkscape:window-height="1009"
     inkscape:window-x="0"
     inkscape:window-y="34"
     inkscape:window-maximized="1"
     scale-x="1" />
  <metadata
     id="metadata5">
    <rdf:RDF>
      <cc:Work
         rdf:about="">
        <dc:format>image/svg+xml</dc:format>
        <dc:type
           rdf:resource="http://purl.org/dc/dcmitype/StillImage" />
        <dc:title></dc:title>
      </cc:Work>
    </rdf:RDF>
  </metadata>
  <g
     inkscape:label="Capa 1"
     inkscape:groupmode="layer"
     id="layer1"
     transform="translate(-71.958343,-145.92112)">
    <rect
       style="opacity:1;fill:#323e4f;fill-opacity:1;stroke:#3ca370;stroke-width:1.32291663;stroke-linecap:round;stroke-linejoin:miter;stroke-miterlimit:4;stroke-dasharray:none;stroke-dashoffset:0;stroke-opacity:1"
       id="rect815"
       width="19.834877"
       height="54.837601"
       x="37.102886"
       y="134.354" />
    <rect
       style="opacity:1;fill:#606070;fill-opacity:1;stroke:#c2c2d1;stroke-width:1.32291663;stroke-linecap:round;stroke-linejoin:miter;stroke-miterlimit:4;stroke-dasharray:none;stroke-dashoffset:0;stroke-opacity:1"
       id="rect817"
       width="23.265623"
       height="9.2402477"
       x="67.856026"
       y="134.45975" />
    <path
       style="opacity:1;fill:#ffe478;fill-opacity:1;stroke:#ffffeb;stroke-width:1.03274751;stroke-linecap:round;stroke-linejoin:miter;stroke-miterlimit:4;stroke-dasharray:none;stroke-dashoffset:0;stroke-opacity:1"
       id="path819"
       sodipodi:type="arc"
       sodipodi:cx="78.929932"
       sodipodi:cy="151.07312"
       sodipodi:rx="4.2508054"
       sodipodi:ry="2.5762458"
       sodipodi:start="2.9282436"
       sodipodi:end="2.9226236"
       sodipodi:open="true"
       d="m 74.775504,151.6186 a 4.2508054,2.5762458 0 0 1 3.248551,-3.06255 4.2508054,2.5762458 0 0 1 5.057759,1.96452 4.2508054,2.5762458 0 0 1 -3.234339,3.06806 4.2508054,2.5762458 0 0 1 -5.066848,-1.95589" />
    <rect
       style="opacity:1;fill:#8fde5d;fill-opacity:1;stroke:none;stroke-width:1.32291663;stroke-linecap:round;stroke-linejoin:miter;stroke-miterlimit:4;stroke-dasharray:none;stroke-dashoffset:0;stroke-opacity:1"
       id="rect816"
       width="5.6027908"
       height="50.017643"
       x="39.394955"
       y="136.3381" />
    <rect
       style="opacity:1;fill:#272736;fill-opacity:1;stroke:none;stroke-width:0.90832329;stroke-linecap:round;stroke-linejoin:miter;stroke-miterlimit:4;stroke-dasharray:none;stroke-dashoffset:0;stroke-opacity:1"
       id="rect818"
       width="4.0747581"
       height="6.7233496"
       x="85.533829"
       y="135.56535" />
    <g
       id="g837"
       transform="translate(-0.37734548,-0.5031273)">
      <path
         id="rect819"
         transform="matrix(0.26458333,0,0,0.26458333,31.441428,128.69255)"
         d="m 129.27344,108.38672 c -0.2443,0 -0.44141,0.1971 -0.44141,0.4414 v 23.36329 c 0,0.2443 0.19711,0.4414 0.44141,0.4414 h 2.37695 l -6.28711,19.03907 c -0.0915,0.27715 0.0415,0.61459 0.29688,0.75585 l 16.57812,9.16993 c 0.25541,0.14126 0.53545,0.0311 0.62695,-0.2461 l 9.48243,-28.71875 h 15.07422 a 12.597991,18.54044 0 0 0 -2.64844,15.81055 l 0.0137,0.10156 a 12.597991,18.54044 0 0 0 15.01758,14.07617 12.597991,18.54044 0 0 0 9.58593,-22.08007 12.597991,18.54044 0 0 0 -2.64453,-7.90821 h 38.15039 c 0.24431,0 0.44141,-0.1971 0.44141,-0.4414 v -23.36329 c 0,-0.2443 -0.1971,-0.4414 -0.44141,-0.4414 z"
         style="opacity:1;fill:#7e7e8f;fill-opacity:1;stroke:#c2c2d1;stroke-width:5;stroke-linecap:round;stroke-linejoin:miter;stroke-miterlimit:4;stroke-dasharray:none;stroke-dashoffset:0;stroke-opacity:1"
         inkscape:connector-curvature="0" />
      <path
         d="m 89.565268,161.06502 a 0.7251448,2.1171498 0 0 1 0.55417,-2.51679 0.7251448,2.1171498 0 0 1 0.862803,1.61443 0.7251448,2.1171498 0 0 1 -0.551746,2.52133 0.7251448,2.1171498 0 0 1 -0.864353,-1.60735"
         sodipodi:open="true"
         sodipodi:end="2.9226236"
         sodipodi:start="2.9282436"
         sodipodi:ry="2.1171498"
         sodipodi:rx="0.7251448"
         sodipodi:cy="160.61674"
         sodipodi:cx="90.273972"
         sodipodi:type="arc"
         id="path833"
         style="opacity:1;fill:#272736;fill-opacity:1;stroke:#272736;stroke-width:1.19587553;stroke-linecap:round;stroke-linejoin:miter;stroke-miterlimit:4;stroke-dasharray:none;stroke-dashoffset:0;stroke-opacity:1" />
    </g>
    <rect
       style="opacity:1;fill:#eb564b;fill-opacity:1;stroke:#ffffeb;stroke-width:0;stroke-linecap:round;stroke-linejoin:miter;stroke-miterlimit:4;stroke-dasharray:none;stroke-dashoffset:0;stroke-opacity:1"
       id="rect839"
       width="9.9751072"
       height="2.0378172"
       x="99.065399"
       y="149.07025"
       ry="0.84059346" />
    <path
       style="opacity:1;fill:#7e7e8f;fill-opacity:1;stroke:#c2c2d1;stroke-width:1.22566903;stroke-linecap:round;stroke-linejoin:miter;stroke-miterlimit:4;stroke-dasharray:none;stroke-dashoffset:0;stroke-opacity:1"
       d="m 64.318239,180.12905 c -0.305064,0 -0.550653,0.27498 -0.550653,0.61655 v 11.67192 c 0,0.34157 0.245589,0.61655 0.550653,0.61655 h 6.374368 c 0.305064,0 0.550656,-0.27498 0.550656,-0.61655 v -1.38914 h 16.042252 v 1.302 c 0,0.34157 0.245589,0.61655 0.550655,0.61655 h 4.739601 c 0.305064,0 0.550653,-0.27498 0.550653,-0.61655 v -11.06145 c 0,-0.34157 -0.245589,-0.61655 -0.550653,-0.61655 H 87.83617 c -0.305066,0 -0.550655,0.27498 -0.550655,0.61655 v 0.95295 H 71.243263 v -1.47628 c 0,-0.34157 -0.245592,-0.61655 -0.550656,-0.61655 z"
       id="rect841"
       inkscape:connector-curvature="0" />
    <path
       style="opacity:1;fill:#322947;fill-opacity:1;stroke:none;stroke-width:1.32291663;stroke-linecap:round;stroke-linejoin:miter;stroke-miterlimit:4;stroke-dasharray:none;stroke-dashoffset:0;stroke-opacity:1"
       id="path852"
       sodipodi:type="arc"
       sodipodi:cx="90.373917"
       sodipodi:cy="186.53706"
       sodipodi:rx="1.8232954"
       sodipodi:ry="4.4915309"
       sodipodi:start="2.9282436"
       sodipodi:end="2.9226236"
       sodipodi:open="true"
       d="m 88.59196,187.48807 a 1.8232954,4.4915309 0 0 1 1.393399,-5.33936 1.8232954,4.4915309 0 0 1 2.169422,3.42501 1.8232954,4.4915309 0 0 1 -1.387303,5.34899 1.8232954,4.4915309 0 0 1 -2.17332,-3.40998" />
    <g
       transform="translate(0.77892462,146.13335)"
       id="g912">
      <path
         d="m 87.90165,30.331063 a 2.6458333,2.6458333 0 0 1 2.021999,-3.145269 2.6458333,2.6458333 0 0 1 3.148107,2.017578 2.6458333,2.6458333 0 0 1 -2.013153,3.150938 2.6458333,2.6458333 0 0 1 -3.153763,-2.008724"
         sodipodi:open="true"
         sodipodi:end="2.9226236"
         sodipodi:start="2.9282436"
         sodipodi:ry="2.6458333"
         sodipodi:rx="2.6458333"
         sodipodi:cy="29.770849"
         sodipodi:cx="90.487495"
         sodipodi:type="arc"
         id="path874"
         style="opacity:1;fill:#3ca370;fill-opacity:1;stroke:none;stroke-width:0.52916664;stroke-linecap:round;stroke-linejoin:miter;stroke-miterlimit:4;stroke-dasharray:none;stroke-dashoffset:0;stroke-opacity:1" />
      <path
         id="path876"
         transform="matrix(0.26458333,0,0,0.26458333,70.908309,26.066498)"
         d="m 64.005859,14 a 9.9999997,9.9999997 0 0 0 0.220703,2.117188 l 0.01172,0.05664 A 9.9999997,9.9999997 0 0 0 76.158203,23.765625 9.9999997,9.9999997 0 0 0 83.992188,14 h -0.02734 A 9.9999996,7.4902756 0 0 1 76.158203,20.6875 9.9999996,7.4902756 0 0 1 64.238281,15 l -0.01172,-0.04102 A 9.9999996,7.4902756 0 0 1 64.044922,14 Z"
         style="opacity:1;fill:#323e4f;fill-opacity:1;stroke:none;stroke-width:1.99999988;stroke-linecap:round;stroke-linejoin:miter;stroke-miterlimit:4;stroke-dasharray:none;stroke-dashoffset:0;stroke-opacity:1"
         inkscape:connector-curvature="0" />
      <path
         transform="rotate(-56.025293)"
         d="m 26.979359,91.886207 a 0.66145831,0.92604166 0 0 1 0.5055,-1.100844 0.66145831,0.92604166 0 0 1 0.787026,0.706152 0.66145831,0.92604166 0 0 1 -0.503288,1.102828 0.66145831,0.92604166 0 0 1 -0.788441,-0.703053"
         sodipodi:open="true"
         sodipodi:end="2.9226236"
         sodipodi:start="2.9282436"
         sodipodi:ry="0.92604166"
         sodipodi:rx="0.66145831"
         sodipodi:cy="91.690132"
         sodipodi:cx="27.62582"
         sodipodi:type="arc"
         id="path884"
         style="opacity:1;fill:#8fde5d;fill-opacity:1;stroke:none;stroke-width:0.52916664;stroke-linecap:round;stroke-linejoin:miter;stroke-miterlimit:4;stroke-dasharray:none;stroke-dashoffset:0;stroke-opacity:1" />
      <g
         transform="matrix(0.89437026,-0.89437026,0.89437026,0.89437026,-16.253356,82.504448)"
         id="g903">
        <path
           d="m 88.61177,28.598644 a 0.56562781,0.28281391 0 0 1 0.432264,-0.336198 0.56562781,0.28281391 0 0 1 0.673004,0.215659 0.56562781,0.28281391 0 0 1 -0.430373,0.336805 0.56562781,0.28281391 0 0 1 -0.674213,-0.214713"
           sodipodi:open="true"
           sodipodi:end="2.9226236"
           sodipodi:start="2.9282436"
           sodipodi:ry="0.28281391"
           sodipodi:rx="0.56562781"
           sodipodi:cy="28.538763"
           sodipodi:cx="89.164574"
           sodipodi:type="arc"
           id="path898"
           style="opacity:1;fill:#272736;fill-opacity:1;stroke:none;stroke-width:0.56562781;stroke-linecap:round;stroke-linejoin:miter;stroke-miterlimit:4;stroke-dasharray:none;stroke-dashoffset:0;stroke-opacity:1" />
        <rect
           style="opacity:1;fill:#7e7e8f;fill-opacity:1;stroke:none;stroke-width:0.50715983;stroke-linecap:round;stroke-linejoin:miter;stroke-miterlimit:4;stroke-dasharray:none;stroke-dashoffset:0;stroke-opacity:1"
           id="rect888"
           width="1.0583334"
           height="1.3563555"
           x="88.635406"
           y="27.389599"
           ry="0.35569954" />
        <path
           style="opacity:1;fill:#7e7e8f;fill-opacity:1;stroke:none;stroke-width:0.52916664;stroke-linecap:round;stroke-linejoin:miter;stroke-miterlimit:4;stroke-dasharray:none;stroke-dashoffset:0;stroke-opacity:1"
           id="path896"
           sodipodi:type="arc"
           sodipodi:cx="89.164574"
           sodipodi:cy="28.513241"
           sodipodi:rx="0.52916664"
           sodipodi:ry="0.26458332"
           sodipodi:start="2.9282436"
           sodipodi:end="2.9226236"
           sodipodi:open="true"
           d="m 88.647405,28.569262 a 0.52916664,0.26458332 0 0 1 0.404399,-0.314527 0.52916664,0.26458332 0 0 1 0.629622,0.201758 0.52916664,0.26458332 0 0 1 -0.402631,0.315094 0.52916664,0.26458332 0 0 1 -0.630752,-0.200872" />
      </g>
    </g>
  </g>
</svg>
