<?xml version="1.0" encoding="UTF-8" standalone="no"?>
<!-- Created with Inkscape (http://www.inkscape.org/) -->

<svg
   xmlns:dc="http://purl.org/dc/elements/1.1/"
   xmlns:cc="http://creativecommons.org/ns#"
   xmlns:rdf="http://www.w3.org/1999/02/22-rdf-syntax-ns#"
   xmlns:svg="http://www.w3.org/2000/svg"
   xmlns="http://www.w3.org/2000/svg"
   xmlns:sodipodi="http://sodipodi.sourceforge.net/DTD/sodipodi-0.dtd"
   xmlns:inkscape="http://www.inkscape.org/namespaces/inkscape"
   width="48.005859"
   height="28.000658"
   viewBox="0 0 12.701551 7.4085076"
   version="1.1"
   id="svg8"
   inkscape:version="0.92.5 (2060ec1f9f, 2020-04-08)"
   sodipodi:docname="trap_falling_thorn.svg">
  <defs
     id="defs2" />
  <sodipodi:namedview
     id="base"
     pagecolor="#ffffff"
     bordercolor="#666666"
     borderopacity="1.0"
     inkscape:pageopacity="0.0"
     inkscape:pageshadow="2"
     inkscape:zoom="9.0707224"
     inkscape:cx="41.198355"
     inkscape:cy="18.274535"
     inkscape:document-units="mm"
     inkscape:current-layer="layer1"
     showgrid="true"
     fit-margin-top="4"
     fit-margin-left="4"
     fit-margin-right="4"
     fit-margin-bottom="4"
     units="px"
     inkscape:window-width="1920"
     inkscape:window-height="1009"
     inkscape:window-x="0"
     inkscape:window-y="34"
     inkscape:window-maximized="1">
    <inkscape:grid
       type="xygrid"
       id="grid815"
       empspacing="4"
       originx="-70.908316"
       originy="-263.52501" />
  </sodipodi:namedview>
  <metadata
     id="metadata5">
    <rdf:RDF>
      <cc:Work
         rdf:about="">
        <dc:format>image/svg+xml</dc:format>
        <dc:type
           rdf:resource="http://purl.org/dc/dcmitype/StillImage" />
        <dc:title></dc:title>
      </cc:Work>
    </rdf:RDF>
  </metadata>
  <g
     inkscape:label="Capa 1"
     inkscape:groupmode="layer"
     id="layer1"
     transform="translate(-70.908309,-26.066498)">
    <g
       id="g834">
      <path
         id="path817"
         transform="scale(0.26458333)"
         d="m 279.88281,102.51953 a 7.9999996,3.9999998 0 0 0 -1.58789,0.0918 7.9999996,3.9999998 0 0 0 -6.29101,3.90429 l -0.004,0.004 8,16 8,-16 -0.006,-0.006 a 7.9999996,3.9999998 0 0 0 -0.17969,-0.85156 7.9999996,3.9999998 0 0 0 -7.93164,-3.14258 z"
         style="opacity:1;fill:#7e7e8f;fill-opacity:1;stroke:none;stroke-width:1.99999988;stroke-linecap:round;stroke-linejoin:miter;stroke-miterlimit:4;stroke-dasharray:none;stroke-dashoffset:0;stroke-opacity:1"
         inkscape:connector-curvature="0" />
      <path
         id="path827"
         transform="scale(0.26458333)"
         d="m 279.88281,102.51953 a 7.9999995,3.9999997 0 0 0 -1.58789,0.0918 7.9999995,3.9999997 0 0 0 -4.83984,1.61914 7.9999994,3.9999999 0 0 1 2.83984,-0.61914 7.9999994,3.9999999 0 0 1 1.58789,-0.0918 7.9999994,3.9999999 0 0 1 7.93164,3.14258 7.9999994,3.9999999 0 0 1 0.17969,0.85156 l 0.006,0.006 -6.75,13.5 0.75,1.5 8,-16 -0.006,-0.006 a 7.9999995,3.9999997 0 0 0 -0.17969,-0.85156 7.9999995,3.9999997 0 0 0 -7.93164,-3.14258 z"
         style="opacity:1;fill:#c2c2d1;fill-opacity:1;stroke:none;stroke-width:1.99999988;stroke-linecap:round;stroke-linejoin:miter;stroke-miterlimit:4;stroke-dasharray:none;stroke-dashoffset:0;stroke-opacity:1"
         inkscape:connector-curvature="0" />
    </g>
    <g
       id="g872"
       transform="translate(0,0.00173454)">
      <path
         id="path855"
         transform="matrix(0.26458333,0,0,0.26458333,70.908309,26.066498)"
         d="M 35.888672,4 A 7.9999994,3.9999999 0 0 0 34.300781,4.091797 7.9999994,3.9999999 0 0 0 28.009766,7.9960939 L 28.005859,8 l 4,8 h 8 l 4,-8 L 44,7.9941406 A 7.9999994,3.9999999 0 0 0 43.820312,7.1425781 7.9999994,3.9999999 0 0 0 35.888672,4 Z"
         style="opacity:1;fill:#7e7e8f;fill-opacity:1;stroke:none;stroke-width:1.99999988;stroke-linecap:round;stroke-linejoin:miter;stroke-miterlimit:4;stroke-dasharray:none;stroke-dashoffset:0;stroke-opacity:1"
         inkscape:connector-curvature="0" />
      <path
         id="path857"
         transform="matrix(0.26458333,0,0,0.26458333,70.908309,26.066498)"
         d="M 35.888672,4 A 7.9999994,3.9999995 0 0 0 34.300781,4.0917969 7.9999994,3.9999995 0 0 0 29.460938,5.7109375 7.9999994,3.9999999 0 0 1 32.300781,5.0917969 7.9999994,3.9999999 0 0 1 33.888672,5 7.9999994,3.9999999 0 0 1 41.820312,8.1425781 7.9999994,3.9999999 0 0 1 42,8.9941406 L 42.005859,9 l -3.5,7 h 1.5 l 4,-8 L 44,7.9941406 A 7.9999994,3.9999995 0 0 0 43.820312,7.1425781 7.9999994,3.9999995 0 0 0 35.888672,4 Z"
         style="opacity:1;fill:#c2c2d1;fill-opacity:1;stroke:none;stroke-width:1.99999988;stroke-linecap:round;stroke-linejoin:miter;stroke-miterlimit:4;stroke-dasharray:none;stroke-dashoffset:0;stroke-opacity:1"
         inkscape:connector-curvature="0" />
    </g>
  </g>
</svg>
